<svg width="24" height="24" viewBox="0 0 24 24" fill="none" xmlns="http://www.w3.org/2000/svg">
<path d="M16.6064 18.775H4.88424V6.83791H11.7222V4.88422H4.88424C3.8097 4.88422 2.93054 5.76338 2.93054 6.83791V18.5601C2.93054 19.6346 3.8097 20.5138 4.88424 20.5138H16.6064C17.6809 20.5138 18.5601 19.6346 18.5601 18.5601V11.7221H16.6064V18.775Z" fill="black"/>
<path d="M18.5601 1.95367H16.6064V4.88422H13.6758C13.6856 4.89398 13.6758 6.83791 13.6758 6.83791H16.6064V9.75868C16.6162 9.76845 18.5601 9.75868 18.5601 9.75868V6.83791H21.4906V4.88422H18.5601V1.95367Z" fill="black"/>
<path d="M6.83795 8.79163H14.6527V10.7453H6.83795V8.79163Z" fill="black"/>
<path d="M6.83795 11.7222V13.6759H14.6527V11.7222H11.7222H6.83795Z" fill="black"/>
<path d="M6.83795 14.6527H14.6527V16.6064H6.83795V14.6527Z" fill="black"/>
</svg>
