<svg width="21" height="21" viewBox="0 0 21 21" fill="none" xmlns="http://www.w3.org/2000/svg">
<path d="M11.375 17.9375C11.375 18.4012 11.4538 18.8388 11.6025 19.25H5.25C4.27875 19.25 3.5 18.4713 3.5 17.5V3.5C3.5 2.5375 4.27875 1.75 5.25 1.75H6.125V7.875L8.3125 6.5625L10.5 7.875V1.75H15.75C16.7125 1.75 17.5 2.52875 17.5 3.5V9.625H14.4375V14.0963C12.6875 14.4988 11.375 16.065 11.375 17.9375ZM17.5 11.375H16.1875V15.9337C15.9162 15.8112 15.6275 15.75 15.3125 15.75C14.105 15.75 13.125 16.73 13.125 17.9375C13.125 19.145 14.105 20.125 15.3125 20.125C16.52 20.125 17.5 19.145 17.5 17.9375V13.125H19.25V11.375H17.5Z" fill="black"/>
</svg>
