<svg width="24" height="24" viewBox="0 0 24 24" fill="none" xmlns="http://www.w3.org/2000/svg">
<path d="M17.315 14.4292V18.277C17.315 18.806 16.8821 19.2389 16.3531 19.2389H4.80968C4.2806 19.2389 3.84773 18.806 3.84773 18.277V6.73357C3.84773 6.2045 4.2806 5.77162 4.80968 5.77162H7.71477C8.24384 5.77162 8.67672 5.33875 8.67672 4.80967C8.67672 4.2806 8.24384 3.84772 7.71477 3.84772H3.84773C2.78958 3.84772 1.92383 4.71348 1.92383 5.77162V19.2389C1.92383 20.2971 2.78958 21.1628 3.84773 21.1628H17.315C18.3732 21.1628 19.2389 20.2971 19.2389 19.2389V14.4292C19.2389 13.9001 18.806 13.4672 18.277 13.4672C17.7479 13.4672 17.315 13.9001 17.315 14.4292ZM14.9101 17.315H6.27184C5.86782 17.315 5.64657 16.8533 5.89668 16.5358L7.57047 14.3907C7.76286 14.1502 8.1284 14.1406 8.32079 14.3811L9.82144 16.1895L12.082 13.2845C12.2744 13.0343 12.6592 13.0343 12.842 13.2941L15.2949 16.5551C15.5354 16.8629 15.3045 17.315 14.9101 17.315ZM18.5656 8.55166C19.0273 7.81096 19.287 6.9452 19.2293 5.99287C19.1042 3.92468 17.4593 2.17393 15.4104 1.95268C12.7939 1.6641 10.5814 3.69381 10.5814 6.2526C10.5814 8.64785 12.5149 10.5814 14.9005 10.5814C15.747 10.5814 16.5358 10.3313 17.1996 9.90801L19.5179 12.2263C19.893 12.6015 20.5087 12.6015 20.8839 12.2263C21.259 11.8511 21.259 11.2355 20.8839 10.8603L18.5656 8.55166ZM14.9101 8.65747C13.5827 8.65747 12.5053 7.58009 12.5053 6.2526C12.5053 4.92511 13.5827 3.84772 14.9101 3.84772C16.2376 3.84772 17.315 4.92511 17.315 6.2526C17.315 7.58009 16.2376 8.65747 14.9101 8.65747Z" fill="black"/>
</svg>
