<svg width="22" height="20" viewBox="0 0 22 20" fill="none" xmlns="http://www.w3.org/2000/svg">
<path d="M11.1001 15.5646C11.1001 15.9046 11.1401 16.2346 11.1901 16.5646H2.1001C1.0001 16.5646 0.100098 15.6746 0.100098 14.5646V2.56458C0.100098 1.45458 0.990098 0.564575 2.1001 0.564575H8.1001L10.1001 2.56458H18.1001C19.2001 2.56458 20.1001 3.45458 20.1001 4.56458V10.3746C19.2201 9.86458 18.2001 9.56458 17.1001 9.56458C13.7901 9.56458 11.1001 12.2546 11.1001 15.5646ZM18.1001 14.5646V11.5646H16.1001V14.5646H13.1001V16.5646H16.1001V19.5646H18.1001V16.5646H21.1001V14.5646H18.1001Z" fill="black"/>
</svg>
