<svg width="20" height="20" viewBox="0 0 20 20" fill="none" xmlns="http://www.w3.org/2000/svg">
<path d="M7.36035 18.3583H2.36035C1.25035 18.3583 0.360352 17.4683 0.360352 16.3583V2.35828C0.360352 1.24828 1.25035 0.358276 2.36035 0.358276H16.3604C17.4704 0.358276 18.3604 1.24828 18.3604 2.35828V7.68828C18.0604 7.56828 17.7304 7.49828 17.4004 7.49828C17.0304 7.49828 16.6804 7.57828 16.3604 7.72828V2.35828H2.36035V16.3583H7.47035L7.36035 16.4683V18.3583ZM4.36035 6.35828H14.3604V4.35828H4.36035V6.35828ZM4.36035 14.3583H9.47035L11.3604 12.4783V12.3583H4.36035V14.3583ZM4.36035 10.3583H13.4804L14.3604 9.47828V8.35828H4.36035V10.3583ZM19.0604 10.9383L17.7804 9.65828C17.5704 9.44828 17.2204 9.44828 17.0104 9.65828L16.0104 10.6583L18.0604 12.7083L19.0604 11.7083C19.2704 11.4983 19.2704 11.1483 19.0604 10.9383ZM9.36035 19.3583H11.4204L17.4704 13.2883L15.4204 11.2383L9.36035 17.2983V19.3583Z" fill="black"/>
</svg>
