<svg width="22" height="22" viewBox="0 0 22 22" fill="none" xmlns="http://www.w3.org/2000/svg">
<path d="M9.71491 14.6669C10.0661 15.0181 10.6333 15.0181 10.9844 14.6669L14.2167 11.4346C14.5679 11.0835 14.5679 10.5163 14.2167 10.1651L10.9844 6.93282C10.6333 6.58168 10.0661 6.58168 9.71491 6.93282C9.36377 7.28396 9.36377 7.85119 9.71491 8.20233L11.4076 9.90402H3.60144C3.10624 9.90402 2.70108 10.3092 2.70108 10.8044C2.70108 11.2996 3.10624 11.7047 3.60144 11.7047H11.4076L9.71491 13.3974C9.36377 13.7486 9.37277 14.3248 9.71491 14.6669ZM17.1069 2.70111H4.50181C3.5024 2.70111 2.70108 3.51144 2.70108 4.50184V7.20293C2.70108 7.69813 3.10624 8.10329 3.60144 8.10329C4.09664 8.10329 4.50181 7.69813 4.50181 7.20293V5.4022C4.50181 4.907 4.90697 4.50184 5.40217 4.50184H16.2065C16.7017 4.50184 17.1069 4.907 17.1069 5.4022V16.2066C17.1069 16.7018 16.7017 17.1069 16.2065 17.1069H5.40217C4.90697 17.1069 4.50181 16.7018 4.50181 16.2066V14.4058C4.50181 13.9106 4.09664 13.5055 3.60144 13.5055C3.10624 13.5055 2.70108 13.9106 2.70108 14.4058V17.1069C2.70108 18.0973 3.51141 18.9077 4.50181 18.9077H17.1069C18.0973 18.9077 18.9076 18.0973 18.9076 17.1069V4.50184C18.9076 3.51144 18.0973 2.70111 17.1069 2.70111Z" fill="black"/>
</svg>
