<svg xmlns="http://www.w3.org/2000/svg" xmlns:xlink="http://www.w3.org/1999/xlink" viewBox="0 0 81 73" fill="#fff" fill-rule="evenodd" stroke="#000" stroke-linecap="round" stroke-linejoin="round"><use xlink:href="#A" x=".5" y=".5"/><symbol id="A" overflow="visible"><g stroke="none"><path d="M63.64 28.8h-7.28L40 72h7.28l4-10.8h17.28l4 10.8H80zM54.08 54L60 38.4 65.92 54z" fill="#4285f4" fill-rule="nonzero"/><path d="M43.16 47.08l-9.24-9.04h0a62.48 62.48 0 0 0 13.6-23.64H58.2V7.2H32.72V0h-7.28v7.2H0v7.16h40.6a56.24 56.24 0 0 1-11.52 19.28 58.2 58.2 0 0 1-8.4-12H13.4a64 64 0 0 0 10.84 16.4L5.76 56l5.16 5.2 18.16-18L40.4 54.4z" fill="#669df6"/></g></symbol></svg>