<svg width="21" height="21" viewBox="0 0 21 21" fill="none" xmlns="http://www.w3.org/2000/svg">
<path d="M20.729 14.8147V2.8147C20.729 2.28426 20.5183 1.77556 20.1432 1.40048C19.7681 1.02541 19.2594 0.814697 18.729 0.814697H6.729C6.19857 0.814697 5.68986 1.02541 5.31479 1.40048C4.93972 1.77556 4.729 2.28426 4.729 2.8147V14.8147C4.729 15.3451 4.93972 15.8538 5.31479 16.2289C5.68986 16.604 6.19857 16.8147 6.729 16.8147H18.729C19.2594 16.8147 19.7681 16.604 20.1432 16.2289C20.5183 15.8538 20.729 15.3451 20.729 14.8147M9.729 10.8147L11.759 13.5247L14.729 9.8147L18.729 14.8147H6.729M0.729004 4.8147V18.8147C0.729004 19.3451 0.939718 19.8538 1.31479 20.2289C1.68986 20.604 2.19857 20.8147 2.729 20.8147H16.729V18.8147H2.729V4.8147" fill="black"/>
</svg>
