<svg width="23" height="23" viewBox="0 0 23 23" fill="none" xmlns="http://www.w3.org/2000/svg">
<path d="M11.9332 9.43337C11.1597 7.2354 9.06547 5.66003 6.60337 5.66003C3.48093 5.66003 0.943359 8.19761 0.943359 11.32C0.943359 14.4425 3.48093 16.9801 6.60337 16.9801C9.06547 16.9801 11.1597 15.4047 11.9332 13.2067H16.0367V16.9801H19.8101V13.2067H21.6967V9.43337H11.9332ZM6.60337 13.2067C5.5657 13.2067 4.7167 12.3577 4.7167 11.32C4.7167 10.2824 5.5657 9.43337 6.60337 9.43337C7.64104 9.43337 8.49004 10.2824 8.49004 11.32C8.49004 12.3577 7.64104 13.2067 6.60337 13.2067Z" fill="black"/>
</svg>
