<svg width="20" height="21" viewBox="0 0 20 21" fill="none" xmlns="http://www.w3.org/2000/svg">
<path d="M9.99 0.03125C4.47 0.03125 0 4.58125 0 10.1875C0 15.7937 4.47 20.3438 9.99 20.3438C15.52 20.3438 20 15.7937 20 10.1875C20 4.58125 15.52 0.03125 9.99 0.03125ZM16.92 6.125H13.97C13.65 4.85547 13.19 3.63672 12.59 2.50938C14.43 3.14922 15.96 4.44922 16.92 6.125ZM10 2.10312C10.83 3.32188 11.48 4.67266 11.91 6.125H8.09C8.52 4.67266 9.17 3.32188 10 2.10312ZM2.26 12.2188C2.1 11.5688 2 10.8883 2 10.1875C2 9.48672 2.1 8.80625 2.26 8.15625H5.64C5.56 8.82656 5.5 9.49687 5.5 10.1875C5.5 10.8781 5.56 11.5484 5.64 12.2188H2.26ZM3.08 14.25H6.03C6.35 15.5195 6.81 16.7383 7.41 17.8656C5.57 17.2258 4.04 15.9359 3.08 14.25V14.25ZM6.03 6.125H3.08C4.04 4.43906 5.57 3.14922 7.41 2.50938C6.81 3.63672 6.35 4.85547 6.03 6.125V6.125ZM10 18.2719C9.17 17.0531 8.52 15.7023 8.09 14.25H11.91C11.48 15.7023 10.83 17.0531 10 18.2719ZM12.34 12.2188H7.66C7.57 11.5484 7.5 10.8781 7.5 10.1875C7.5 9.49687 7.57 8.81641 7.66 8.15625H12.34C12.43 8.81641 12.5 9.49687 12.5 10.1875C12.5 10.8781 12.43 11.5484 12.34 12.2188ZM12.59 17.8656C13.19 16.7383 13.65 15.5195 13.97 14.25H16.92C15.96 15.9258 14.43 17.2258 12.59 17.8656V17.8656ZM14.36 12.2188C14.44 11.5484 14.5 10.8781 14.5 10.1875C14.5 9.49687 14.44 8.82656 14.36 8.15625H17.74C17.9 8.80625 18 9.48672 18 10.1875C18 10.8883 17.9 11.5688 17.74 12.2188H14.36Z" fill="#292F40"/>
</svg>
