<svg width="27" height="27" viewBox="0 0 27 27" fill="none" xmlns="http://www.w3.org/2000/svg">
<path d="M19.8564 7.14374C18.0227 5.30999 15.4239 4.25249 12.5664 4.54499C8.43768 4.96124 5.04018 8.31374 4.57893 12.4425C3.96018 17.8987 8.17893 22.5 13.5002 22.5C17.0889 22.5 20.1714 20.3962 21.6114 17.37C21.9714 16.6162 21.4314 15.75 20.5989 15.75C20.1827 15.75 19.7889 15.975 19.6089 16.3462C18.3377 19.08 15.2889 20.8125 11.9589 20.07C9.46143 19.5187 7.44768 17.4825 6.91893 14.985C5.97393 10.62 9.29268 6.74999 13.5002 6.74999C15.3677 6.74999 17.0327 7.52624 18.2477 8.75249L16.5489 10.4512C15.8402 11.16 16.3352 12.375 17.3364 12.375H21.3752C21.9939 12.375 22.5002 11.8687 22.5002 11.25V7.21124C22.5002 6.20999 21.2852 5.70374 20.5764 6.41249L19.8564 7.14374Z" fill="black"/>
</svg>
