<svg width="18" height="23" viewBox="0 0 18 23" fill="none" xmlns="http://www.w3.org/2000/svg">
<path d="M8.82491 2.52782V0.55325C8.82491 0.0568483 8.22923 -0.185837 7.88726 0.16716L4.79855 3.24485C4.57792 3.46547 4.57792 3.80744 4.79855 4.02806L7.87623 7.10574C8.22923 7.44771 8.82491 7.20503 8.82491 6.70862V4.73405C12.4762 4.73405 15.4436 7.70143 15.4436 11.3527C15.4436 12.2242 15.2781 13.0736 14.9582 13.8347C14.7928 14.2319 14.9141 14.6841 15.2119 14.982C15.7745 15.5446 16.7232 15.346 17.021 14.6069C17.4292 13.6031 17.6498 12.5 17.6498 11.3527C17.6498 6.47697 13.7007 2.52782 8.82491 2.52782ZM8.82491 17.9714C5.1736 17.9714 2.20623 15.004 2.20623 11.3527C2.20623 10.4813 2.37169 9.63188 2.6916 8.87073C2.85706 8.47361 2.73572 8.02133 2.43788 7.72349C1.87529 7.1609 0.926616 7.35946 0.628775 8.09855C0.220623 9.10238 0 10.2055 0 11.3527C0 16.2285 3.94915 20.1776 8.82491 20.1776V22.1522C8.82491 22.6486 9.42059 22.8913 9.76256 22.5383L12.8402 19.4606C13.0609 19.24 13.0609 18.898 12.8402 18.6774L9.76256 15.5997C9.42059 15.2578 8.82491 15.5004 8.82491 15.9968V17.9714Z" fill="black"/>
</svg>
