<svg width="22" height="20" viewBox="0 0 22 20" fill="none" xmlns="http://www.w3.org/2000/svg">
<path d="M18 0L13 4.5V15.5L18 11V0ZM5.5 3C3.55 3 1.45 3.4 0 4.5V19.16C0 19.41 0.25 19.66 0.5 19.66C0.6 19.66 0.65 19.59 0.75 19.59C2.1 18.94 4.05 18.5 5.5 18.5C7.45 18.5 9.55 18.9 11 20C12.35 19.15 14.8 18.5 16.5 18.5C18.15 18.5 19.85 18.81 21.25 19.56C21.35 19.61 21.4 19.59 21.5 19.59C21.75 19.59 22 19.34 22 19.09V4.5C21.4 4.05 20.75 3.75 20 3.5V17C18.9 16.65 17.7 16.5 16.5 16.5C14.8 16.5 12.35 17.15 11 18V4.5C9.55 3.4 7.45 3 5.5 3Z" fill="#778797"/>
</svg>
