<svg width="25" height="25" viewBox="0 0 25 25" fill="none" xmlns="http://www.w3.org/2000/svg">
<g clip-path="url(#clip0_78_137)">
<path d="M19.9375 13.4792C19.9791 13.1667 20 12.8438 20 12.5C20 12.1667 19.9791 11.8333 19.9271 11.5208L22.0416 9.875C22.2291 9.72917 22.2812 9.44792 22.1666 9.23958L20.1666 5.78125C20.0416 5.55208 19.7812 5.47917 19.5521 5.55208L17.0625 6.55208C16.5416 6.15625 15.9896 5.82292 15.375 5.57292L15 2.92708C14.9583 2.67708 14.75 2.5 14.5 2.5H10.5C10.25 2.5 10.0521 2.67708 10.0104 2.92708L9.63539 5.57292C9.02081 5.82292 8.45831 6.16667 7.94789 6.55208L5.45831 5.55208C5.22914 5.46875 4.96872 5.55208 4.84372 5.78125L2.85414 9.23958C2.72914 9.45833 2.77081 9.72917 2.97914 9.875L5.09372 11.5208C5.04164 11.8333 4.99997 12.1771 4.99997 12.5C4.99997 12.8229 5.02081 13.1667 5.07289 13.4792L2.95831 15.125C2.77081 15.2708 2.71872 15.5521 2.83331 15.7604L4.83331 19.2188C4.95831 19.4479 5.21872 19.5208 5.44789 19.4479L7.93747 18.4479C8.45831 18.8437 9.01039 19.1771 9.62497 19.4271L9.99997 22.0729C10.0521 22.3229 10.25 22.5 10.5 22.5H14.5C14.75 22.5 14.9583 22.3229 14.9896 22.0729L15.3646 19.4271C15.9791 19.1771 16.5416 18.8437 17.0521 18.4479L19.5416 19.4479C19.7708 19.5312 20.0312 19.4479 20.1562 19.2188L22.1562 15.7604C22.2812 15.5312 22.2291 15.2708 22.0312 15.125L19.9375 13.4792ZM12.5 16.25C10.4375 16.25 8.74997 14.5625 8.74997 12.5C8.74997 10.4375 10.4375 8.75 12.5 8.75C14.5625 8.75 16.25 10.4375 16.25 12.5C16.25 14.5625 14.5625 16.25 12.5 16.25Z" fill="#778797"/>
</g>
<defs>
<clipPath id="clip0_78_137">
<rect width="25" height="25" fill="white"/>
</clipPath>
</defs>
</svg>
