<svg width="25" height="25" viewBox="0 0 25 25" fill="none" xmlns="http://www.w3.org/2000/svg">
<path d="M18.1688 16.2309C17.4016 16.2309 16.7153 16.5337 16.1904 17.0081L8.99351 12.8192C9.04398 12.587 9.08435 12.3548 9.08435 12.1126C9.08435 11.8703 9.04398 11.6382 8.99351 11.406L16.1096 7.25748C16.6547 7.76217 17.3714 8.07508 18.1688 8.07508C19.8443 8.07508 21.1969 6.72251 21.1969 5.04694C21.1969 3.37137 19.8443 2.0188 18.1688 2.0188C16.4932 2.0188 15.1406 3.37137 15.1406 5.04694C15.1406 5.28919 15.181 5.52135 15.2315 5.7535L8.11535 9.90205C7.57028 9.39736 6.85362 9.08445 6.05621 9.08445C4.38064 9.08445 3.02808 10.437 3.02808 12.1126C3.02808 13.7882 4.38064 15.1407 6.05621 15.1407C6.85362 15.1407 7.57028 14.8278 8.11535 14.3231L15.3021 18.5222C15.2517 18.7341 15.2214 18.9562 15.2214 19.1782C15.2214 20.8033 16.5437 22.1256 18.1688 22.1256C19.7939 22.1256 21.1162 20.8033 21.1162 19.1782C21.1162 17.5531 19.7939 16.2309 18.1688 16.2309Z" fill="black"/>
</svg>
