<svg width="23" height="23" viewBox="0 0 23 23" fill="none" xmlns="http://www.w3.org/2000/svg">
<path d="M18.6668 4.66671H10.1547L9.3334 1.8667H3.73337C2.7067 1.8667 1.8667 2.7067 1.8667 3.73337V15.8668C1.8667 16.8934 2.7067 17.7334 3.73337 17.7334H10.2667L11.2001 20.5335H18.6668C19.6934 20.5335 20.5335 19.6934 20.5335 18.6668V6.53339C20.5335 5.50672 19.6934 4.66671 18.6668 4.66671ZM6.69206 13.6174C4.59205 13.6174 2.8747 11.9094 2.8747 9.80007C2.8747 7.69073 4.58271 5.98272 6.69206 5.98272C7.66273 5.98272 8.5494 6.32805 9.2494 6.98139L9.31473 7.03739L8.16673 8.13873L8.11073 8.09206C7.84006 7.84006 7.38273 7.54139 6.69206 7.54139C5.46938 7.54139 4.47071 8.55873 4.47071 9.80007C4.47071 11.0414 5.46938 12.0587 6.69206 12.0587C7.97073 12.0587 8.5214 11.2467 8.67073 10.6961H6.60805V9.2494H10.2947L10.3041 9.31473C10.3414 9.51073 10.3507 9.68807 10.3507 9.88407C10.3507 12.0774 8.84807 13.6174 6.69206 13.6174ZM12.3201 12.0214C12.6281 12.5814 13.0108 13.1228 13.4308 13.6081L12.9268 14.1028L12.3201 12.0214ZM13.0388 11.3121H12.1147L11.8254 10.3414H15.5494C15.5494 10.3414 15.2321 11.5641 14.0934 12.8988C13.6081 12.3201 13.2628 11.7507 13.0388 11.3121ZM19.6001 18.6668C19.6001 19.1801 19.1801 19.6001 18.6668 19.6001H12.1334L14.0001 17.7334L13.2441 15.1481L14.1028 14.2894L16.6041 16.8001L17.2854 16.1188L14.7561 13.6174C15.5961 12.6561 16.2494 11.5174 16.5481 10.3414H17.7334V9.37073H14.3361V8.40006H13.3654V9.37073H11.5361L10.4347 5.60005H18.6668C19.1801 5.60005 19.6001 6.02005 19.6001 6.53339V18.6668Z" fill="black"/>
</svg>
