<svg width="20" height="20" viewBox="0 0 20 20" fill="none" xmlns="http://www.w3.org/2000/svg">
<path d="M14.1667 0.833374H5.83341C5.39139 0.833374 4.96746 1.00897 4.6549 1.32153C4.34234 1.63409 4.16675 2.05801 4.16675 2.50004V17.5C4.16675 17.9421 4.34234 18.366 4.6549 18.6786C4.96746 18.9911 5.39139 19.1667 5.83341 19.1667H14.1667C14.6088 19.1667 15.0327 18.9911 15.3453 18.6786C15.6578 18.366 15.8334 17.9421 15.8334 17.5V2.50004C15.8334 2.05801 15.6578 1.63409 15.3453 1.32153C15.0327 1.00897 14.6088 0.833374 14.1667 0.833374ZM14.1667 15.8334H5.83341V4.16671H14.1667V15.8334ZM13.3334 10.8334H10.8334V6.66671H9.16675V10.8334H6.66675L10.0001 14.1667L13.3334 10.8334Z" fill="black"/>
</svg>
